<svg width="24" height="24" viewBox="0 0 24 24" fill="none" xmlns="http://www.w3.org/2000/svg">
<path d="M15.0904 3.33047C15.2804 3.33047 15.4704 3.40047 15.6204 3.55047C15.9104 3.84047 15.9104 4.32047 15.6204 4.61047L9.10039 11.1305C8.62039 11.6105 8.62039 12.3905 9.10039 12.8705L15.6204 19.3905C15.9104 19.6805 15.9104 20.1605 15.6204 20.4505C15.3304 20.7405 14.8504 20.7405 14.5604 20.4505L8.04039 13.9305C7.53039 13.4205 7.24039 12.7305 7.24039 12.0005C7.24039 11.2705 7.52039 10.5805 8.04039 10.0705L14.5604 3.55047C14.7104 3.41047 14.9004 3.33047 15.0904 3.33047Z" fill="#292D32"/>
</svg>
