<svg width="49" height="48" viewBox="0 0 49 48" fill="none" xmlns="http://www.w3.org/2000/svg">
<path d="M16.333 11.5C15.513 11.5 14.833 10.82 14.833 10V4C14.833 3.18 15.513 2.5 16.333 2.5C17.153 2.5 17.833 3.18 17.833 4V10C17.833 10.82 17.153 11.5 16.333 11.5Z" fill="#3604C4"/>
<path d="M32.333 11.5C31.513 11.5 30.833 10.82 30.833 10V4C30.833 3.18 31.513 2.5 32.333 2.5C33.153 2.5 33.833 3.18 33.833 4V10C33.833 10.82 33.153 11.5 32.333 11.5Z" fill="#3604C4"/>
<path d="M17.333 28.9999C16.813 28.9999 16.293 28.7799 15.913 28.4199C15.553 28.0399 15.333 27.5399 15.333 26.9999C15.333 26.7399 15.393 26.4799 15.493 26.2399C15.593 25.9999 15.733 25.7799 15.913 25.5799C16.653 24.8399 17.993 24.8399 18.753 25.5799C19.113 25.9599 19.333 26.4799 19.333 26.9999C19.333 27.1199 19.313 27.2599 19.293 27.3999C19.273 27.5199 19.233 27.6399 19.173 27.7599C19.133 27.8799 19.073 27.9999 18.993 28.1199C18.913 28.2199 18.833 28.3199 18.753 28.4199C18.373 28.7799 17.853 28.9999 17.333 28.9999Z" fill="#3604C4"/>
<path d="M24.333 29.0001C24.073 29.0001 23.813 28.9402 23.573 28.8402C23.313 28.7402 23.113 28.6001 22.913 28.4201C22.553 28.0401 22.333 27.5401 22.333 27.0001C22.333 26.7401 22.393 26.4801 22.493 26.2401C22.593 26.0001 22.733 25.7802 22.913 25.5802C23.113 25.4002 23.313 25.2601 23.573 25.1601C24.313 24.8601 25.193 25.0202 25.753 25.5802C26.113 25.9602 26.333 26.4801 26.333 27.0001C26.333 27.1201 26.313 27.2602 26.293 27.4002C26.273 27.5202 26.233 27.6401 26.173 27.7601C26.133 27.8801 26.073 28.0001 25.993 28.1201C25.933 28.2201 25.833 28.3201 25.753 28.4201C25.373 28.7801 24.853 29.0001 24.333 29.0001Z" fill="#3604C4"/>
<path d="M17.333 36.0001C17.073 36.0001 16.813 35.9401 16.573 35.8401C16.313 35.7401 16.093 35.6 15.913 35.42C15.733 35.24 15.593 35.0201 15.493 34.7601C15.393 34.5201 15.333 34.2601 15.333 34.0001C15.333 33.7401 15.393 33.48 15.493 33.24C15.593 32.98 15.733 32.7601 15.913 32.5801C16.093 32.4001 16.313 32.26 16.573 32.16C17.053 31.96 17.613 31.94 18.093 32.16C18.353 32.26 18.573 32.4001 18.753 32.5801C18.933 32.7601 19.073 32.98 19.173 33.24C19.273 33.48 19.333 33.7401 19.333 34.0001C19.333 34.2601 19.273 34.5201 19.173 34.7601C19.073 35.0201 18.933 35.24 18.753 35.42C18.573 35.6 18.353 35.7401 18.093 35.8401C17.853 35.9401 17.593 36.0001 17.333 36.0001Z" fill="#3604C4"/>
<path d="M41.333 19.6797H7.33301C6.51301 19.6797 5.83301 18.9997 5.83301 18.1797C5.83301 17.3597 6.51301 16.6797 7.33301 16.6797H41.333C42.153 16.6797 42.833 17.3597 42.833 18.1797C42.833 18.9997 42.153 19.6797 41.333 19.6797Z" fill="#3604C4"/>
<path d="M36.333 47.5C33.993 47.5 31.773 46.66 30.073 45.12C29.353 44.52 28.713 43.76 28.193 42.88C27.313 41.44 26.833 39.74 26.833 38C26.833 32.76 31.093 28.5 36.333 28.5C39.053 28.5 41.653 29.68 43.453 31.72C44.993 33.48 45.833 35.7 45.833 38C45.833 39.74 45.353 41.44 44.453 42.9C42.773 45.74 39.653 47.5 36.333 47.5ZM36.333 31.5C32.753 31.5 29.833 34.42 29.833 38C29.833 39.18 30.153 40.34 30.773 41.34C31.113 41.94 31.553 42.44 32.033 42.86C33.233 43.94 34.733 44.5 36.333 44.5C38.633 44.5 40.713 43.32 41.893 41.36C42.513 40.34 42.833 39.2 42.833 38C42.833 36.44 42.253 34.92 41.213 33.7C39.973 32.3 38.193 31.5 36.333 31.5Z" fill="#3604C4"/>
<path d="M35.1928 41.4801C34.8128 41.4801 34.4328 41.3401 34.1328 41.0401L32.1528 39.0601C31.5728 38.4801 31.5728 37.5201 32.1528 36.9401C32.7328 36.3601 33.6928 36.3601 34.2728 36.9401L35.2328 37.9001L38.4328 34.9401C39.0328 34.3801 39.9928 34.4201 40.5528 35.0201C41.1128 35.6201 41.0728 36.5801 40.4728 37.1401L36.2128 41.0801C35.9128 41.3401 35.5528 41.4801 35.1928 41.4801Z" fill="#3604C4"/>
<path d="M31.073 45.5H16.333C9.03301 45.5 4.83301 41.3 4.83301 34V17C4.83301 9.7 9.03301 5.5 16.333 5.5H32.333C39.633 5.5 43.833 9.7 43.833 17V32.72C43.833 33.34 43.453 33.9 42.853 34.12C42.273 34.34 41.613 34.18 41.193 33.7C39.953 32.3 38.173 31.5 36.313 31.5C32.733 31.5 29.813 34.42 29.813 38C29.813 39.18 30.133 40.34 30.753 41.34C31.093 41.94 31.533 42.44 32.013 42.86C32.493 43.26 32.673 43.92 32.453 44.52C32.273 45.1 31.713 45.5 31.073 45.5ZM16.333 8.5C10.613 8.5 7.83301 11.28 7.83301 17V34C7.83301 39.72 10.613 42.5 16.333 42.5H27.973C27.233 41.14 26.833 39.6 26.833 38C26.833 32.76 31.093 28.5 36.333 28.5C37.913 28.5 39.473 28.9 40.833 29.64V17C40.833 11.28 38.053 8.5 32.333 8.5H16.333Z" fill="#3604C4"/>
</svg>
