<svg width="258" height="200" viewBox="0 0 258 200" fill="none" xmlns="http://www.w3.org/2000/svg">
<path fill-rule="evenodd" clip-rule="evenodd" d="M207 65C210.866 65 214 68.134 214 72C214 75.866 210.866 79 207 79H167C170.866 79 174 82.134 174 86C174 89.866 170.866 93 167 93H189C192.866 93 196 96.134 196 100C196 103.866 192.866 107 189 107H178.826C173.952 107 170 110.134 170 114C170 116.577 172 118.911 176 121C179.866 121 183 124.134 183 128C183 131.866 179.866 135 176 135H93C89.134 135 86 131.866 86 128C86 124.134 89.134 121 93 121H54C50.134 121 47 117.866 47 114C47 110.134 50.134 107 54 107H94C97.866 107 101 103.866 101 100C101 96.134 97.866 93 94 93H69C65.134 93 62 89.866 62 86C62 82.134 65.134 79 69 79H109C105.134 79 102 75.866 102 72C102 68.134 105.134 65 109 65H207ZM207 93C210.866 93 214 96.134 214 100C214 103.866 210.866 107 207 107C203.134 107 200 103.866 200 100C200 96.134 203.134 93 207 93Z" fill="#3604C4"/>
<path fill-rule="evenodd" clip-rule="evenodd" d="M153.623 63.9997L162.924 131.842L163.76 138.649C164.029 140.841 162.47 142.837 160.277 143.106L101.717 150.297C99.5245 150.566 97.5287 149.007 97.2595 146.814L88.2437 73.3865C88.1091 72.2901 88.8888 71.2922 89.9851 71.1576C89.992 71.1568 89.9989 71.156 90.0059 71.1552L94.8642 70.6102M98.7924 70.1696L103.379 69.655L98.7924 70.1696Z" fill="white"/>
<path d="M154.861 63.8299C154.767 63.1459 154.137 62.6675 153.453 62.7613C152.769 62.8551 152.29 63.4855 152.384 64.1695L154.861 63.8299ZM162.924 131.842L164.165 131.69C164.164 131.684 164.164 131.678 164.163 131.673L162.924 131.842ZM163.76 138.649L165.001 138.496L163.76 138.649ZM160.277 143.106L160.43 144.347L160.277 143.106ZM101.717 150.297L101.87 151.537L101.717 150.297ZM97.2595 146.814L98.5002 146.662L97.2595 146.814ZM90.0059 71.1552L90.1452 72.3974L90.0059 71.1552ZM95.0036 71.8524C95.6896 71.7755 96.1834 71.1569 96.1065 70.4709C96.0295 69.7848 95.411 69.291 94.7249 69.368L95.0036 71.8524ZM98.653 68.9274C97.967 69.0043 97.4732 69.6229 97.5502 70.3089C97.6271 70.995 98.2457 71.4887 98.9317 71.4118L98.653 68.9274ZM103.519 70.8972C104.205 70.8203 104.699 70.2017 104.622 69.5157C104.545 68.8296 103.926 68.3359 103.24 68.4128L103.519 70.8972ZM152.384 64.1695L161.686 132.012L164.163 131.673L154.861 63.8299L152.384 64.1695ZM161.684 131.995L162.519 138.801L165.001 138.496L164.165 131.69L161.684 131.995ZM162.519 138.801C162.705 140.309 161.633 141.681 160.125 141.866L160.43 144.347C163.308 143.994 165.354 141.374 165.001 138.496L162.519 138.801ZM160.125 141.866L101.565 149.056L101.87 151.537L160.43 144.347L160.125 141.866ZM101.565 149.056C100.057 149.241 98.6853 148.169 98.5002 146.662L96.0188 146.966C96.3722 149.844 98.9916 151.891 101.87 151.537L101.565 149.056ZM98.5002 146.662L89.4844 73.2341L87.0031 73.5388L96.0188 146.966L98.5002 146.662ZM89.4844 73.2341C89.4339 72.823 89.7263 72.4488 90.1374 72.3983L89.8328 69.9169C88.0512 70.1357 86.7843 71.7572 87.0031 73.5388L89.4844 73.2341ZM90.1374 72.3983C90.14 72.398 90.1426 72.3977 90.1452 72.3974L89.8665 69.913C89.8553 69.9142 89.844 69.9156 89.8328 69.9169L90.1374 72.3983ZM90.1452 72.3974L95.0036 71.8524L94.7249 69.368L89.8665 69.913L90.1452 72.3974ZM98.9317 71.4118L103.519 70.8972L103.24 68.4128L98.653 68.9274L98.9317 71.4118ZM103.24 68.4128L98.653 68.9274L98.9317 71.4118L103.519 70.8972L103.24 68.4128Z" fill="#3604C4"/>
<path fill-rule="evenodd" clip-rule="evenodd" d="M150.77 68.2686L159.189 129.752L159.947 135.921C160.191 137.908 158.796 139.714 156.833 139.955L104.391 146.394C102.427 146.635 100.638 145.22 100.394 143.233L92.2437 76.8562C92.1091 75.7599 92.8888 74.762 93.9851 74.6274L100.473 73.8308" fill="white"/>
<path d="M111 51.25H156.557C157.286 51.25 157.985 51.5395 158.501 52.0549L171.944 65.4898C172.46 66.0056 172.75 66.7053 172.75 67.4349V130C172.75 131.519 171.519 132.75 170 132.75H111C109.481 132.75 108.25 131.519 108.25 130V54C108.25 52.4812 109.481 51.25 111 51.25Z" fill="white" stroke="#3604C4" stroke-width="2.5"/>
<path d="M157 52.4023V63.9995C157 65.6564 158.343 66.9995 160 66.9995H167.934" stroke="#3604C4" stroke-width="2.5" stroke-linecap="round" stroke-linejoin="round"/>
<path d="M118 67H144M118 79H161M118 92H161M118 105H161M118 118H144" stroke="#3604C4" stroke-width="2.5" stroke-linecap="round" stroke-linejoin="round"/>
</svg>
