<svg width="48" height="48" viewBox="0 0 48 48" fill="none" xmlns="http://www.w3.org/2000/svg">
<path d="M34 43.5H14C5.18 43.5 2.5 40.82 2.5 32V16C2.5 7.18 5.18 4.5 14 4.5H34C42.82 4.5 45.5 7.18 45.5 16V32C45.5 40.82 42.82 43.5 34 43.5ZM14 7.5C6.84 7.5 5.5 8.86 5.5 16V32C5.5 39.14 6.84 40.5 14 40.5H34C41.16 40.5 42.5 39.14 42.5 32V16C42.5 8.86 41.16 7.5 34 7.5H14Z" fill="#3604C4"/>
<path d="M38 17.5H28C27.18 17.5 26.5 16.82 26.5 16C26.5 15.18 27.18 14.5 28 14.5H38C38.82 14.5 39.5 15.18 39.5 16C39.5 16.82 38.82 17.5 38 17.5Z" fill="#3604C4"/>
<path d="M38 25.5H30C29.18 25.5 28.5 24.82 28.5 24C28.5 23.18 29.18 22.5 30 22.5H38C38.82 22.5 39.5 23.18 39.5 24C39.5 24.82 38.82 25.5 38 25.5Z" fill="#3604C4"/>
<path d="M38 33.5H34C33.18 33.5 32.5 32.82 32.5 32C32.5 31.18 33.18 30.5 34 30.5H38C38.82 30.5 39.5 31.18 39.5 32C39.5 32.82 38.82 33.5 38 33.5Z" fill="#3604C4"/>
<path d="M17.0009 24.08C14.1809 24.08 11.8809 21.78 11.8809 18.96C11.8809 16.14 14.1809 13.84 17.0009 13.84C19.8209 13.84 22.1209 16.14 22.1209 18.96C22.1209 21.78 19.8209 24.08 17.0009 24.08ZM17.0009 16.84C15.8409 16.84 14.8809 17.8 14.8809 18.96C14.8809 20.12 15.8409 21.08 17.0009 21.08C18.1609 21.08 19.1209 20.12 19.1209 18.96C19.1209 17.8 18.1609 16.84 17.0009 16.84Z" fill="#3604C4"/>
<path d="M23.9998 34.16C23.2398 34.16 22.5798 33.58 22.4998 32.8C22.2798 30.64 20.5398 28.9 18.3598 28.7C17.4398 28.62 16.5198 28.62 15.5998 28.7C13.4198 28.9 11.6798 30.62 11.4598 32.8C11.3798 33.62 10.6398 34.24 9.81981 34.14C8.99981 34.06 8.39981 33.32 8.47981 32.5C8.83981 28.9 11.6998 26.04 15.3198 25.72C16.4198 25.62 17.5398 25.62 18.6398 25.72C22.2398 26.06 25.1198 28.92 25.4798 32.5C25.5598 33.32 24.9598 34.06 24.1398 34.14C24.0998 34.16 24.0398 34.16 23.9998 34.16Z" fill="#3604C4"/>
</svg>
