<svg width="49" height="48" viewBox="0 0 49 48" fill="none" xmlns="http://www.w3.org/2000/svg">
<path d="M40.667 11.5H28.667C27.847 11.5 27.167 10.82 27.167 10C27.167 9.18 27.847 8.5 28.667 8.5H40.667C41.487 8.5 42.167 9.18 42.167 10C42.167 10.82 41.487 11.5 40.667 11.5Z" fill="#3604C4"/>
<path d="M34.667 17.5H28.667C27.847 17.5 27.167 16.82 27.167 16C27.167 15.18 27.847 14.5 28.667 14.5H34.667C35.487 14.5 36.167 15.18 36.167 16C36.167 16.82 35.487 17.5 34.667 17.5Z" fill="#3604C4"/>
<path d="M23.667 43.5C12.367 43.5 3.16699 34.3 3.16699 23C3.16699 11.7 12.367 2.5 23.667 2.5C24.487 2.5 25.167 3.18 25.167 4C25.167 4.82 24.487 5.5 23.667 5.5C14.007 5.5 6.16699 13.36 6.16699 23C6.16699 32.64 14.007 40.5 23.667 40.5C33.327 40.5 41.167 32.64 41.167 23C41.167 22.18 41.847 21.5 42.667 21.5C43.487 21.5 44.167 22.18 44.167 23C44.167 34.3 34.967 43.5 23.667 43.5Z" fill="#3604C4"/>
<path d="M44.6679 45.4999C44.2879 45.4999 43.9079 45.3599 43.6079 45.0599L39.6079 41.0599C39.0279 40.4799 39.0279 39.5199 39.6079 38.9399C40.1879 38.3599 41.1479 38.3599 41.7279 38.9399L45.7279 42.9399C46.3079 43.5199 46.3079 44.4799 45.7279 45.0599C45.4279 45.3599 45.0479 45.4999 44.6679 45.4999Z" fill="#3604C4"/>
</svg>
