<svg width="36" height="36" viewBox="0 0 36 36" fill="none" xmlns="http://www.w3.org/2000/svg">
<path d="M22.5 34.125H13.5C11.52 34.125 9.86998 33.93 8.47498 33.51C7.96498 33.36 7.63497 32.865 7.66497 32.34C8.03997 27.855 12.585 24.33 18 24.33C23.415 24.33 27.945 27.84 28.335 32.34C28.38 32.88 28.05 33.36 27.525 33.51C26.13 33.93 24.48 34.125 22.5 34.125ZM10.08 31.59C11.07 31.785 12.195 31.875 13.5 31.875H22.5C23.805 31.875 24.93 31.785 25.92 31.59C25.125 28.71 21.84 26.58 18 26.58C14.16 26.58 10.875 28.71 10.08 31.59Z" fill="#6B6A99"/>
<path d="M22.5 3H13.5C6 3 3 6 3 13.5V22.5C3 28.17 4.71 31.275 8.79 32.43C9.12 28.53 13.125 25.455 18 25.455C22.875 25.455 26.88 28.53 27.21 32.43C31.29 31.275 33 28.17 33 22.5V13.5C33 6 30 3 22.5 3ZM18 21.255C15.03 21.255 12.63 18.84 12.63 15.87C12.63 12.9 15.03 10.5 18 10.5C20.97 10.5 23.37 12.9 23.37 15.87C23.37 18.84 20.97 21.255 18 21.255Z" stroke="#6B6A99" stroke-width="2.25" stroke-linecap="round" stroke-linejoin="round"/>
<path d="M17.9999 22.38C14.4149 22.38 11.5049 19.455 11.5049 15.87C11.5049 12.285 14.4149 9.375 17.9999 9.375C21.5849 9.375 24.4949 12.285 24.4949 15.87C24.4949 19.455 21.5849 22.38 17.9999 22.38ZM17.9999 11.625C15.6599 11.625 13.7549 13.53 13.7549 15.87C13.7549 18.225 15.6599 20.13 17.9999 20.13C20.3399 20.13 22.2449 18.225 22.2449 15.87C22.2449 13.53 20.3399 11.625 17.9999 11.625Z" fill="#6B6A99"/>
</svg>
