<svg width="62" height="25" viewBox="0 0 62 25" fill="none" xmlns="http://www.w3.org/2000/svg">
<path d="M22.0288 7.62277L22.096 7.89141C22.1183 8.09289 22.1519 8.35034 22.1967 8.66376C22.2415 8.97718 22.2751 9.34657 22.2974 9.77192C22.3422 10.1973 22.3646 10.6226 22.3646 11.048C22.3646 13.5329 22.2191 15.6373 21.9281 17.3611C21.6594 19.0849 21.2005 20.4841 20.5513 21.5587C19.9244 22.6109 19.0849 23.3832 18.0327 23.8757C16.9805 24.3458 15.6821 24.5809 14.1374 24.5809C11.9658 24.5809 10.4771 23.6854 9.67118 21.8945C9.26821 22.8123 8.70854 23.4951 7.99215 23.9429C7.29816 24.3682 6.26836 24.5809 4.90275 24.5809C3.15657 24.5809 1.90289 24.0772 1.14174 23.0698C0.380579 22.0624 0 20.6632 0 18.8722V7.62277H3.82817V18.57C3.82817 19.5103 3.99608 20.2938 4.33188 20.9206C4.66769 21.5251 5.23855 21.8273 6.04449 21.8273C7.07429 21.8273 7.86903 21.3236 8.4287 20.3162C8.98838 19.3088 9.26821 17.6409 9.26821 15.3127V7.62277H13.0628C13.0404 9.30179 13.0292 10.8577 13.0292 12.2905C13.0292 12.9173 13.018 13.5441 12.9956 14.171C12.9956 14.7978 12.9956 15.3911 12.9956 15.9507C12.9956 16.5104 12.9956 17.0253 12.9956 17.4954C12.9956 17.9432 12.9956 18.3014 12.9956 18.57C12.9956 19.5103 13.1747 20.2938 13.5329 20.9206C13.8911 21.5251 14.4732 21.8273 15.2791 21.8273C16.0627 21.8273 16.6671 21.5251 17.0925 20.9206C17.5402 20.3162 17.8648 19.5326 18.0663 18.57C18.2678 17.585 18.3909 16.4768 18.4357 15.2455C18.4805 13.9919 18.5028 12.727 18.5028 11.4509C18.5028 10.936 18.4805 10.4547 18.4357 10.007C18.4133 9.53685 18.3685 9.1227 18.3014 8.7645C18.2566 8.40631 18.223 8.12648 18.2006 7.92499L18.1335 7.62277H22.0288Z" fill="#6C38FF"/>
<path d="M27.9216 24.4802C26.7351 24.4802 25.8285 24.1332 25.2016 23.4392C24.5748 22.7228 24.2614 21.8049 24.2614 20.6856V7.62277H28.0895V20.3498C28.0895 20.8647 28.1679 21.2117 28.3246 21.3908C28.4813 21.5699 28.7164 21.6594 29.0298 21.6594C29.1193 21.6594 29.2089 21.6594 29.2984 21.6594C29.4104 21.6594 29.5111 21.6482 29.6007 21.6258C29.6902 21.6258 29.791 21.6146 29.9029 21.5922L30.3059 24.01C30.1491 24.0996 29.9477 24.1779 29.7014 24.2451C29.4999 24.3123 29.2425 24.3682 28.9291 24.413C28.638 24.4578 28.3022 24.4802 27.9216 24.4802ZM26.2426 0.167902C26.959 0.167902 27.5075 0.380578 27.8881 0.805931C28.2686 1.23128 28.4589 1.77977 28.4589 2.45138C28.4589 3.12298 28.2575 3.68266 27.8545 4.1304C27.4739 4.57814 26.903 4.80201 26.1419 4.80201C25.4255 4.80201 24.8658 4.58933 24.4629 4.16398C24.0823 3.71624 23.892 3.17895 23.892 2.55212C23.892 1.85812 24.0823 1.28725 24.4629 0.839511C24.8658 0.391772 25.4591 0.167902 26.2426 0.167902Z" fill="#6C38FF"/>
<path d="M41.7185 24.3458V13.4994C41.7185 12.5591 41.5506 11.8091 41.2148 11.2495C40.879 10.6674 40.3081 10.3764 39.5022 10.3764C38.9873 10.3764 38.4836 10.5107 37.9911 10.7793C37.5209 11.0256 37.0956 11.395 36.715 11.8875C36.3344 12.38 36.021 12.9845 35.7748 13.7008C35.5509 14.3948 35.4389 15.1784 35.4389 16.0515V24.3458H31.6108V15.8836C31.6108 14.5403 31.5212 13.421 31.3421 12.5255C31.163 11.6077 30.9727 10.8689 30.7713 10.3092C30.525 9.65998 30.2564 9.13389 29.9653 8.73092L32.9876 7.52203C33.2114 7.76828 33.4353 8.07051 33.6592 8.4287C33.8383 8.74212 34.0174 9.13389 34.1965 9.60402C34.3756 10.0518 34.5211 10.5667 34.633 11.1487C35.2151 9.8055 36.0546 8.84286 37.1516 8.2608C38.2485 7.65635 39.4014 7.35412 40.6103 7.35412C42.3341 7.35412 43.5766 7.88022 44.3378 8.93241C45.1213 9.96221 45.5131 11.3614 45.5131 13.13V24.3458H41.7185Z" fill="#6C38FF"/>
<path d="M51.2207 0V9.57044C51.3998 9.34657 51.6236 9.1115 51.8923 8.86525C52.1833 8.5966 52.5415 8.35035 52.9669 8.12648C53.3922 7.90261 53.8847 7.71232 54.4444 7.55561C55.0041 7.3989 55.6533 7.32054 56.3921 7.32054C57.0861 7.32054 57.7353 7.42129 58.3397 7.62277C58.9442 7.82425 59.4591 8.11528 59.8844 8.49586C60.3322 8.87644 60.6792 9.34657 60.9254 9.90624C61.1941 10.4435 61.3284 11.0592 61.3284 11.7532C61.3284 12.7606 61.1157 13.5889 60.6904 14.2381C60.2874 14.8873 59.8285 15.4022 59.3136 15.7828C58.7315 16.2306 58.0599 16.5888 57.2987 16.8574L62 24.3458H57.6681L52.8325 15.9843L52.799 15.6485C52.9781 15.6037 53.3139 15.503 53.8064 15.3463C54.3213 15.1896 54.8474 14.9657 55.3847 14.6747C55.9219 14.3836 56.3921 14.0254 56.795 13.6001C57.2204 13.1524 57.4331 12.6263 57.4331 12.0218C57.4331 11.3726 57.2428 10.8801 56.8622 10.5443C56.4816 10.2085 55.9779 10.0406 55.3511 10.0406C54.5004 10.0406 53.8064 10.2085 53.2691 10.5443C52.7318 10.8801 52.3064 11.2607 51.993 11.686C51.702 12.1114 51.5005 12.5143 51.3886 12.8949C51.2766 13.2755 51.2207 13.4994 51.2207 13.5665V24.3458H47.3925V0.671609L51.2207 0Z" fill="#6C38FF"/>
</svg>
