<svg width="36" height="36" viewBox="0 0 36 36" fill="none" xmlns="http://www.w3.org/2000/svg">
<path d="M18.7501 34.1249H6.12008C3.76508 34.1249 1.83008 32.2349 1.83008 29.8949V7.63492C1.83008 5.33992 2.68508 3.55491 4.24508 2.57991C5.82008 1.58991 7.86008 1.61991 9.97508 2.66991L16.6351 5.93991C18.4501 6.83992 19.8751 9.10492 19.8751 11.1149V32.9999C19.8751 33.6149 19.3651 34.1249 18.7501 34.1249ZM6.84008 4.12491C6.31508 4.12491 5.83508 4.24491 5.43008 4.49991C4.56008 5.03991 4.08008 6.16492 4.08008 7.63492V29.8949C4.08008 30.9899 4.99508 31.8749 6.12008 31.8749H17.6251V11.1149C17.6251 9.95992 16.6951 8.47492 15.6301 7.96492L8.97008 4.69492C8.20508 4.31992 7.48508 4.12491 6.84008 4.12491Z" fill="#6B6A99"/>
<path d="M28.215 34.125H18.75C18.135 34.125 17.625 33.615 17.625 33V15.63C17.625 15.285 17.775 14.97 18.045 14.76C18.315 14.55 18.645 14.46 18.99 14.535L19.695 14.685L29.505 16.875C32.49 17.535 33.99 19.29 34.08 22.275C34.095 22.275 34.095 22.425 34.095 22.59V28.26C34.08 32.1 32.055 34.125 28.215 34.125ZM19.875 31.875H28.215C30.855 31.875 31.83 30.9 31.83 28.26V22.47C31.755 20.415 30.975 19.5 29.01 19.065L19.875 17.025V31.875Z" fill="#6B6A99"/>
<path d="M13.455 14.625H8.25C7.635 14.625 7.125 14.115 7.125 13.5C7.125 12.885 7.635 12.375 8.25 12.375H13.455C14.07 12.375 14.58 12.885 14.58 13.5C14.58 14.115 14.085 14.625 13.455 14.625Z" fill="#6B6A99"/>
<path d="M13.455 20.625H8.25C7.635 20.625 7.125 20.115 7.125 19.5C7.125 18.885 7.635 18.375 8.25 18.375H13.455C14.07 18.375 14.58 18.885 14.58 19.5C14.58 20.115 14.085 20.625 13.455 20.625Z" fill="#6B6A99"/>
<path d="M22.8301 26.625C20.3551 26.625 18.3301 24.6 18.3301 22.125V15.78C18.3301 15.435 18.4801 15.12 18.7501 14.895C19.0201 14.67 19.3651 14.595 19.6951 14.67L26.4451 16.185C26.9551 16.305 27.3301 16.755 27.3301 17.28V22.11C27.3301 24.6 25.3201 26.625 22.8301 26.625ZM20.5801 17.19V22.125C20.5801 23.37 21.5851 24.375 22.8301 24.375C24.0751 24.375 25.0801 23.37 25.0801 22.125V18.195L20.5801 17.19Z" fill="#6B6A99"/>
<path d="M29.5801 26.625C27.1051 26.625 25.0801 24.6 25.0801 22.125V17.295C25.0801 16.95 25.2301 16.635 25.5001 16.425C25.7701 16.215 26.1151 16.125 26.4451 16.2L29.4901 16.875C32.4751 17.535 33.9751 19.29 34.0651 22.275C34.0651 22.305 34.0651 22.335 34.0651 22.365C33.9451 24.75 31.9801 26.625 29.5801 26.625ZM27.3301 18.69V22.125C27.3301 23.37 28.3351 24.375 29.5801 24.375C30.7651 24.375 31.7401 23.4599 31.8151 22.2899C31.7401 20.3999 30.9601 19.5 29.0101 19.065L27.3301 18.69Z" fill="#6B6A99"/>
</svg>
