<svg width="24" height="24" viewBox="0 0 24 24" fill="none" xmlns="http://www.w3.org/2000/svg">
<g clip-path="url(#clip0_38_2026)">
<path d="M12.064 13.9722C11.9669 13.9708 11.8742 13.9318 11.8052 13.8634L9.85898 11.9172C9.81655 11.8455 9.79917 11.7618 9.80958 11.6792C9.81999 11.5966 9.8576 11.5198 9.91648 11.4609C9.97535 11.402 10.0521 11.3644 10.1348 11.354C10.2174 11.3436 10.3011 11.361 10.3727 11.4034L12.319 13.3497C12.3844 13.4192 12.4208 13.5111 12.4208 13.6065C12.4208 13.702 12.3844 13.7939 12.319 13.8634C12.251 13.9309 12.1598 13.9698 12.064 13.9722Z" fill="#200179"/>
<path d="M14.3932 12.4347C14.2961 12.4333 14.2033 12.3943 14.1344 12.3259L12.1732 10.3647C12.124 10.3355 12.0821 10.2955 12.0507 10.2477C12.0194 10.1999 11.9993 10.1456 11.9922 10.0889C11.9851 10.0322 11.991 9.97455 12.0095 9.92047C12.028 9.86638 12.0587 9.81725 12.0991 9.77683C12.1395 9.7364 12.1886 9.70576 12.2427 9.68723C12.2968 9.6687 12.3544 9.66279 12.4111 9.66993C12.4679 9.67708 12.5222 9.6971 12.57 9.72847C12.6178 9.75983 12.6578 9.80171 12.6869 9.8509L14.6482 11.8122C14.6945 11.8646 14.7253 11.929 14.737 11.998C14.7487 12.067 14.7408 12.1379 14.7142 12.2027C14.6877 12.2675 14.6436 12.3235 14.5868 12.3645C14.5301 12.4055 14.463 12.4298 14.3932 12.4347Z" fill="#200179"/>
<path d="M16.4036 10.5789C16.3083 10.5775 16.2171 10.54 16.1486 10.4739L14.4686 8.79385C14.4182 8.7207 14.3954 8.63203 14.4042 8.54364C14.4131 8.45524 14.453 8.37286 14.517 8.31118C14.5809 8.2495 14.6647 8.21252 14.7533 8.20683C14.842 8.20113 14.9298 8.2271 15.0011 8.2801L16.6811 9.95635C16.7476 10.0261 16.7846 10.1187 16.7846 10.2151C16.7846 10.3115 16.7476 10.4041 16.6811 10.4739C16.6444 10.5093 16.6009 10.5369 16.5531 10.555C16.5054 10.573 16.4545 10.5811 16.4036 10.5789Z" fill="#200179"/>
<path d="M18.1359 8.44138C18.0393 8.44099 17.9466 8.40338 17.8771 8.33637L16.0396 6.49887C15.9879 6.47079 15.9436 6.43094 15.9102 6.38256C15.8768 6.33419 15.8552 6.27863 15.8472 6.22037C15.8392 6.16212 15.8451 6.1028 15.8642 6.04722C15.8834 5.99163 15.9154 5.94133 15.9575 5.90037C15.9997 5.85941 16.051 5.82895 16.1071 5.81144C16.1632 5.79394 16.2227 5.78987 16.2807 5.79958C16.3387 5.80929 16.3936 5.8325 16.4409 5.86734C16.4883 5.90217 16.5268 5.94766 16.5534 6.00012L18.3909 7.83762C18.4361 7.89014 18.466 7.95419 18.477 8.02264C18.4881 8.09109 18.48 8.16127 18.4536 8.22539C18.4271 8.2895 18.3835 8.34503 18.3274 8.3858C18.2713 8.42658 18.205 8.45101 18.1359 8.45637V8.44138Z" fill="#200179"/>
<path d="M19.4581 5.89084C19.3615 5.89045 19.2688 5.85284 19.1993 5.78584L17.5943 4.18084C17.5519 4.10919 17.5345 4.02547 17.5449 3.94286C17.5553 3.86025 17.593 3.78346 17.6518 3.72458C17.7107 3.66571 17.7875 3.6281 17.8701 3.61769C17.9527 3.60728 18.0364 3.62466 18.1081 3.66709L19.7131 5.27209C19.7785 5.34163 19.8149 5.4335 19.8149 5.52896C19.8149 5.62442 19.7785 5.71629 19.7131 5.78584C19.6799 5.81975 19.6402 5.84656 19.5964 5.86461C19.5526 5.88267 19.5055 5.89159 19.4581 5.89084Z" fill="#200179"/>
<path d="M8.74317 12.3521C8.64609 12.3508 8.55334 12.3118 8.48441 12.2434L7.90692 11.6696C7.85845 11.6402 7.81729 11.6002 7.78653 11.5525C7.75577 11.5049 7.73621 11.4509 7.72933 11.3946C7.72245 11.3383 7.72843 11.2812 7.7468 11.2276C7.76518 11.1739 7.79548 11.1252 7.83543 11.0849C7.87538 11.0447 7.92394 11.014 7.97745 10.9953C8.03096 10.9765 8.08802 10.9701 8.14436 10.9766C8.20069 10.983 8.25482 11.0022 8.30268 11.0326C8.35054 11.063 8.39088 11.1039 8.42066 11.1521L8.99817 11.7296C9.04453 11.7821 9.0753 11.8465 9.08698 11.9155C9.09865 11.9845 9.09078 12.0554 9.06425 12.1202C9.03771 12.185 8.99357 12.241 8.93683 12.282C8.88008 12.323 8.813 12.3473 8.74317 12.3521Z" fill="#200179"/>
<path d="M11.1715 10.9649C11.1241 10.9657 11.077 10.9567 11.0332 10.9387C10.9893 10.9206 10.9496 10.8938 10.9165 10.8599L9.29648 9.23992C9.25405 9.16828 9.23667 9.08455 9.24708 9.00194C9.25749 8.91933 9.2951 8.84254 9.35398 8.78366C9.41285 8.72479 9.48965 8.68718 9.57226 8.67677C9.65486 8.66636 9.73859 8.68374 9.81023 8.72617L11.4302 10.3462C11.4756 10.3989 11.5055 10.4633 11.5164 10.532C11.5273 10.6008 11.5188 10.6712 11.492 10.7355C11.4651 10.7997 11.4209 10.8552 11.3643 10.8957C11.3077 10.9362 11.2409 10.9602 11.1715 10.9649Z" fill="#200179"/>
<path d="M13.0825 9.0592C12.986 9.05882 12.8933 9.0212 12.8238 8.9542L11.2038 7.3342C11.1553 7.30477 11.1142 7.26473 11.0834 7.21709C11.0526 7.16945 11.0331 7.11546 11.0262 7.05918C11.0193 7.00289 11.0253 6.94578 11.0437 6.89214C11.0621 6.83849 11.0924 6.78971 11.1323 6.74947C11.1723 6.70923 11.2208 6.67857 11.2743 6.65981C11.3278 6.64104 11.3849 6.63465 11.4412 6.64112C11.4976 6.64759 11.5517 6.66676 11.5996 6.69717C11.6474 6.72758 11.6878 6.76845 11.7175 6.8167L13.3375 8.4367C13.404 8.50644 13.4411 8.5991 13.4411 8.69545C13.4411 8.7918 13.404 8.88446 13.3375 8.9542C13.269 9.02032 13.1778 9.05786 13.0825 9.0592Z" fill="#200179"/>
<path d="M14.9998 7.15158C14.9032 7.1512 14.8106 7.11359 14.741 7.04658L13.1248 5.42658C13.0811 5.35461 13.0629 5.27002 13.0731 5.18643C13.0833 5.10285 13.1214 5.02513 13.1811 4.96581C13.2409 4.90648 13.3189 4.86899 13.4025 4.85938C13.4862 4.84977 13.5706 4.8686 13.6423 4.91283L15.2623 6.53283C15.3277 6.60238 15.3641 6.69425 15.3641 6.78971C15.3641 6.88517 15.3277 6.97703 15.2623 7.04658C15.1918 7.11449 15.0976 7.15217 14.9998 7.15158Z" fill="#200179"/>
<path d="M16.8744 5.25073C16.7791 5.24939 16.6879 5.21185 16.6194 5.14573L14.9994 3.52198C14.9566 3.48943 14.9214 3.44808 14.896 3.40073C14.8706 3.35337 14.8557 3.30112 14.8523 3.24751C14.8489 3.1939 14.857 3.14018 14.8762 3.08998C14.8953 3.03979 14.925 2.9943 14.9633 2.95658C15.0016 2.91887 15.0475 2.88981 15.0979 2.87138C15.1484 2.85296 15.2022 2.84559 15.2558 2.84977C15.3093 2.85396 15.3614 2.8696 15.4084 2.89565C15.4553 2.92169 15.4962 2.95753 15.5281 3.00073L17.1481 4.62073C17.1977 4.67415 17.2306 4.74085 17.2428 4.81268C17.2551 4.88451 17.2461 4.95835 17.2171 5.02518C17.1881 5.09201 17.1402 5.14893 17.0793 5.18898C17.0185 5.22904 16.9472 5.25049 16.8744 5.25073Z" fill="#200179"/>
<path d="M7.38047 10.5411C7.33306 10.5418 7.28599 10.5329 7.24215 10.5149C7.1983 10.4968 7.1586 10.47 7.12546 10.4361L5.50547 8.81609C5.46304 8.74445 5.44566 8.66072 5.45607 8.57812C5.46648 8.49551 5.50409 8.41871 5.56296 8.35984C5.62184 8.30096 5.69863 8.26335 5.78124 8.25294C5.86385 8.24253 5.94757 8.25991 6.01921 8.30234L7.63922 9.92234C7.68463 9.9751 7.71445 10.0395 7.72535 10.1082C7.73626 10.177 7.72781 10.2474 7.70095 10.3116C7.67409 10.3759 7.62989 10.4313 7.57329 10.4719C7.51668 10.5124 7.44992 10.5364 7.38047 10.5411Z" fill="#200179"/>
<path d="M9.02793 8.12996C8.93267 8.12862 8.8415 8.09108 8.77293 8.02496L7.15293 6.40496C7.1105 6.33332 7.09312 6.24959 7.10353 6.16698C7.11394 6.08437 7.15155 6.00758 7.21042 5.9487C7.2693 5.88983 7.34609 5.85222 7.4287 5.84181C7.51131 5.8314 7.59503 5.84878 7.66668 5.89121L9.28668 7.49996C9.33209 7.55272 9.36191 7.61708 9.37282 7.68584C9.38372 7.75459 9.37527 7.82503 9.34841 7.88925C9.32155 7.95348 9.27735 8.00896 9.22075 8.04948C9.16415 8.09001 9.09738 8.11398 9.02793 8.11871V8.12996Z" fill="#200179"/>
<path d="M10.6769 5.7184C10.5798 5.71701 10.4871 5.67803 10.4182 5.60965L8.79817 3.98965C8.74898 3.96052 8.7071 3.92053 8.67573 3.87273C8.64437 3.82493 8.62435 3.7706 8.6172 3.71388C8.61005 3.65716 8.61597 3.59955 8.63449 3.54547C8.65302 3.49138 8.68367 3.44225 8.72409 3.40183C8.76452 3.3614 8.81365 3.33076 8.86773 3.31223C8.92182 3.2937 8.97942 3.28779 9.03614 3.29493C9.09286 3.30208 9.1472 3.3221 9.195 3.35347C9.24279 3.38483 9.28279 3.42671 9.31192 3.4759L10.9319 5.0959C10.9973 5.16545 11.0337 5.25732 11.0337 5.35278C11.0337 5.44824 10.9973 5.54011 10.9319 5.60965C10.8639 5.67714 10.7727 5.71606 10.6769 5.7184Z" fill="#200179"/>
<path d="M13.0875 4.06843C13.0401 4.06897 12.9931 4.05995 12.9493 4.04191C12.9055 4.02386 12.8658 3.99717 12.8325 3.96343L11.2125 2.34343C11.1701 2.27179 11.1527 2.18807 11.1631 2.10546C11.1735 2.02285 11.2111 1.94605 11.27 1.88718C11.3289 1.8283 11.4057 1.7907 11.4883 1.78029C11.5709 1.76988 11.6546 1.78726 11.7262 1.82968L13.3462 3.44968C13.3917 3.50245 13.4215 3.56681 13.4324 3.63557C13.4433 3.70432 13.4348 3.77475 13.408 3.83898C13.3811 3.9032 13.3369 3.95868 13.2803 3.99921C13.2237 4.03973 13.157 4.0637 13.0875 4.06843Z" fill="#200179"/>
<path d="M15.5001 2.42242C15.4048 2.42108 15.3136 2.38354 15.2451 2.31742L13.6251 0.697421C13.5586 0.62768 13.5215 0.535024 13.5215 0.438671C13.5215 0.342318 13.5586 0.249663 13.6251 0.179921C13.6946 0.114531 13.7865 0.078125 13.8819 0.078125C13.9774 0.078125 14.0693 0.114531 14.1388 0.179921L15.7513 1.79992C15.8178 1.86966 15.8549 1.96232 15.8549 2.05867C15.8549 2.15502 15.8178 2.24768 15.7513 2.31742C15.6837 2.38267 15.594 2.42014 15.5001 2.42242Z" fill="#200179"/>
<path d="M9.40328 14.749C9.04507 14.7616 8.688 14.7017 8.35354 14.5728C8.01908 14.4439 7.71413 14.2487 7.45703 13.999L5.45078 12.0002C5.40835 11.9286 5.39097 11.8448 5.40138 11.7622C5.41179 11.6796 5.4494 11.6028 5.50827 11.544C5.56715 11.4851 5.64394 11.4475 5.72655 11.4371C5.80916 11.4267 5.89289 11.444 5.96453 11.4865L7.97078 13.5002C8.51828 14.0477 9.34328 14.1752 10.4233 13.8752C13.7308 12.9902 18.332 8.38521 19.2208 5.07771C19.5095 3.99771 19.3783 3.17271 18.8458 2.62521L16.8245 0.622714C16.758 0.552973 16.721 0.460317 16.721 0.363964C16.721 0.267611 16.758 0.174955 16.8245 0.105214C16.8941 0.0398238 16.9859 0.00341797 17.0814 0.00341797C17.1769 0.00341797 17.2687 0.0398238 17.3383 0.105214L19.3445 2.11146C20.0945 2.86146 20.2783 3.93771 19.922 5.26896C18.9658 8.83521 14.1808 13.624 10.6108 14.5802C10.2172 14.6879 9.81134 14.7446 9.40328 14.749Z" fill="#200179"/>
<path d="M3.7089 24C3.3387 24.0133 2.97671 23.889 2.69265 23.6513C2.54212 23.5111 2.42087 23.3425 2.33591 23.1552C2.25094 22.9679 2.20395 22.7656 2.19765 22.56C2.1189 21.465 2.79015 19.9538 3.95265 18.615C4.11765 18.4238 4.27515 18.24 4.44015 18.0825C4.81839 17.6974 5.24733 17.3656 5.71515 17.0963L6.8139 16.4513C7.03161 16.323 7.20543 16.1319 7.31251 15.903C7.41959 15.6741 7.45494 15.4181 7.4139 15.1688L7.14765 13.5975C7.12889 13.5458 7.12177 13.4905 7.12678 13.4357C7.1318 13.3809 7.14882 13.3278 7.17665 13.2803C7.20448 13.2328 7.24243 13.192 7.28781 13.1608C7.33318 13.1296 7.38487 13.1088 7.43919 13.0998C7.49352 13.0909 7.54915 13.094 7.60214 13.1089C7.65513 13.1239 7.70417 13.1504 7.74579 13.1864C7.7874 13.2225 7.82056 13.2672 7.84292 13.3176C7.86528 13.3679 7.87628 13.4225 7.87515 13.4775L8.1414 15.045C8.20673 15.4409 8.1507 15.8473 7.98069 16.2108C7.81068 16.5742 7.53465 16.8777 7.1889 17.0813L6.0939 17.7225C5.68117 17.9602 5.3027 18.2529 4.9689 18.5925C4.8114 18.75 4.66515 18.915 4.51515 19.0875C3.4764 20.2725 2.85765 21.6113 2.9214 22.5C2.922 22.7237 3.01096 22.938 3.1689 23.0963C3.25944 23.1651 3.36279 23.2151 3.4729 23.2434C3.58301 23.2717 3.69766 23.2778 3.81015 23.2613C4.71015 23.1975 5.9439 22.395 6.9564 21.2213C7.66078 20.3849 8.16142 19.3965 8.4189 18.3338C8.53984 17.8463 8.76281 17.39 9.07309 16.9951C9.38337 16.6001 9.7739 16.2755 10.2189 16.0425C10.73 15.7886 11.274 15.6068 11.8351 15.5025C12.902 15.3145 13.9214 14.9182 14.8351 14.3363C18.1126 12.1688 21.3939 7.93505 21.0564 5.08505C20.9251 3.99005 20.2389 3.21005 19.0051 2.76005C18.9554 2.74349 18.9104 2.71519 18.8739 2.67755C18.8074 2.60781 18.7703 2.51515 18.7703 2.4188C18.7703 2.32245 18.8074 2.22979 18.8739 2.16005C18.9284 2.10696 18.9978 2.07172 19.0728 2.05899C19.1478 2.04627 19.2249 2.05666 19.2939 2.0888C20.7601 2.63255 21.6226 3.63755 21.7839 5.00255C22.1589 8.11505 18.6976 12.6563 15.2401 14.9438C14.2465 15.58 13.1362 16.0121 11.9739 16.215C11.479 16.3066 10.9994 16.4669 10.5489 16.6913C10.196 16.8761 9.88641 17.1338 9.64072 17.4474C9.39504 17.7609 9.21886 18.1232 9.1239 18.51C8.8381 19.6867 8.28216 20.7806 7.50015 21.705C6.37515 23.0363 4.96515 23.9138 3.86265 24H3.7089Z" fill="#200179"/>
</g>
<defs>
<clipPath id="clip0_38_2026">
<rect width="24" height="24" fill="white"/>
</clipPath>
</defs>
</svg>
