<svg width="36" height="36" viewBox="0 0 36 36" fill="none" xmlns="http://www.w3.org/2000/svg">
  <g clip-path="url(#clip0_127_6990)">
    <path d="M21.9583 3C16.7778 3 12.5625 7.21531 12.5625 12.3958V21.9488C11.5708 22.3025 10.8542 23.242 10.8542 24.3542V35.4583C10.3827 35.4583 10 35.841 10 36.3125V39.7292C10 40.2007 10.3827 40.5833 10.8542 40.5833H24.5208C24.9923 40.5833 25.375 40.2007 25.375 39.7292V36.3125C25.375 35.841 24.9923 35.4583 24.5208 35.4583V24.3542C24.5208 23.242 23.8042 22.3025 22.8125 21.9488V3.85417C22.8125 3.38267 22.4298 3 21.9583 3ZM14.2708 13.2064C17.0947 12.9502 19.5573 11.4409 21.1042 9.23883V21.7917H14.2708V13.2064ZM21.0452 4.76471C20.6284 8.27448 17.8404 11.0633 14.3315 11.4819C14.75 7.97296 17.5363 5.1824 21.0452 4.76471ZM23.6667 38.875H11.7083V37.1667H23.6667V38.875ZM12.5625 35.4583V24.3542C12.5625 23.8835 12.946 23.5 13.4167 23.5H21.9583C22.429 23.5 22.8125 23.8835 22.8125 24.3542V35.4583H12.5625Z" 
      fill="#6B6A99"
      stroke="#6B6A99"
      stroke-width="0.5"
    />
    <path d="M21.9583 3C16.7778 3 12.5625 7.21531 12.5625 12.3958V21.9488C11.5708 22.3025 10.8542 23.242 10.8542 24.3542V35.4583C10.3827 35.4583 10 35.841 10 36.3125V39.7292C10 40.2007 10.3827 40.5833 10.8542 40.5833H24.5208C24.9923 40.5833 25.375 40.2007 25.375 39.7292V36.3125C25.375 35.841 24.9923 35.4583 24.5208 35.4583V24.3542C24.5208 23.242 23.8042 22.3025 22.8125 21.9488V3.85417C22.8125 3.38267 22.4298 3 21.9583 3ZM14.2708 13.2064C17.0947 12.9502 19.5573 11.4409 21.1042 9.23883V21.7917H14.2708V13.2064ZM21.0452 4.76471C20.6284 8.27448 17.8404 11.0633 14.3315 11.4819C14.75 7.97296 17.5363 5.1824 21.0452 4.76471ZM23.6667 38.875H11.7083V37.1667H23.6667V38.875ZM12.5625 35.4583V24.3542C12.5625 23.8835 12.946 23.5 13.4167 23.5H21.9583C22.429 23.5 22.8125 23.8835 22.8125 24.3542V35.4583H12.5625Z" 
      stroke="#6B6A99"
      stroke-width="0.5"
    />
  </g>
  <defs>
    <clipPath id="clip0_127_6990">
      <rect width="34" height="34" fill="white" transform="translate(1 1)"/>
    </clipPath>
  </defs>
</svg>
