<svg width="37" height="36" viewBox="0 0 37 36" fill="none" xmlns="http://www.w3.org/2000/svg">
<path d="M26.2119 6.15698C25.713 2.94825 22.9179 1 18.667 1C14.4159 1 11.6207 2.94825 11.1218 6.15698C8.9421 8.2229 7.69629 11.1087 7.69629 14.1134V34.2237C7.69629 34.6525 8.04382 35 8.47254 35C8.90127 35 9.2488 34.6525 9.2488 34.2237V14.1134C9.2488 12.1207 9.88743 10.1887 11.041 8.59504V16.6513C11.041 18.4627 11.6764 20.1284 12.7354 21.4381C12.7521 21.4615 12.7704 21.4839 12.79 21.5056C14.1899 23.1974 16.3047 24.2771 18.667 24.2771C21.0123 24.2771 23.1133 23.2126 24.5133 21.5417C24.5538 21.5021 24.5889 21.4587 24.619 21.4127C25.6657 20.107 26.2928 18.4512 26.2928 16.6513V8.59504C27.4464 10.1887 28.085 12.1207 28.085 14.1134V34.2237C28.085 34.6525 28.4326 35 28.8613 35C29.29 35 29.6375 34.6525 29.6375 34.2237V14.1134C29.6375 11.1087 28.3917 8.2229 26.2119 6.15698ZM12.5935 7.22433C12.5935 3.00771 16.8408 2.55251 18.667 2.55251C20.493 2.55251 24.7403 3.00771 24.7403 7.22433V16.6513C24.7403 17.7837 24.4279 18.8442 23.886 19.7526C22.48 18.4101 20.6266 17.656 18.667 17.656C16.7075 17.656 14.8538 18.4101 13.4479 19.7527C12.906 18.8443 12.5935 17.7837 12.5935 16.6513V7.22433H12.5935ZM14.4127 20.9803C15.5438 19.8473 17.0613 19.2085 18.667 19.2085C20.2727 19.2085 21.7901 19.8473 22.9211 20.9803C21.8245 22.0581 20.3224 22.7246 18.667 22.7246C17.0115 22.7245 15.5094 22.058 14.4127 20.9803Z" fill="#6B6A99"/>
</svg>
