<svg width="36" height="36" viewBox="0 0 36 36" fill="none" xmlns="http://www.w3.org/2000/svg">
<path d="M22.0808 34.1255H13.9958C13.0358 34.1255 12.1958 34.0655 11.4308 33.9605C10.8158 33.8705 10.3808 33.3005 10.4708 32.6855C10.5608 32.0705 11.1158 31.6205 11.7458 31.7255C12.4058 31.8155 13.1408 31.8605 13.9808 31.8605H22.0658C28.2008 31.8605 30.3758 29.6854 30.3758 23.5504V16.8154C30.3758 16.2004 30.8858 15.6904 31.5008 15.6904C32.1158 15.6904 32.6258 16.2004 32.6258 16.8154V23.5504C32.6408 30.9604 29.4758 34.1255 22.0808 34.1255Z" fill="#6B6A99"/>
<path d="M4.56055 24.4056C3.94555 24.4056 3.43555 23.8956 3.43555 23.2806V16.8306C3.43555 16.2156 3.94555 15.7056 4.56055 15.7056C5.17555 15.7056 5.68555 16.2156 5.68555 16.8306V23.2806C5.68555 23.8956 5.17555 24.4056 4.56055 24.4056Z" fill="#6B6A99"/>
<path d="M18.0455 19.1255C16.3955 19.1255 14.8954 18.4805 13.8304 17.2955C12.7654 16.1105 12.2704 14.5655 12.4354 12.9155L13.4405 2.89557C13.5005 2.32557 13.9805 1.87549 14.5655 1.87549H21.5705C22.1555 1.87549 22.6355 2.31057 22.6955 2.89557L23.7004 12.9155C23.8654 14.5655 23.3704 16.1105 22.3054 17.2955C21.1954 18.4805 19.6955 19.1255 18.0455 19.1255ZM15.5554 4.12549L14.6555 13.1405C14.5505 14.1455 14.8505 15.0905 15.4805 15.7805C16.7555 17.1905 19.3054 17.1905 20.5804 15.7805C21.2104 15.0755 21.5105 14.1305 21.4055 13.1405L20.5054 4.12549H15.5554Z" fill="#6B6A99"/>
<path d="M27.4943 19.1255C24.4493 19.1255 21.7343 16.6654 21.4193 13.6354L20.3693 3.12042C20.3393 2.80542 20.4443 2.49049 20.6543 2.25049C20.8643 2.01049 21.1643 1.87549 21.4943 1.87549H26.0693C30.4793 1.87549 32.5342 3.72049 33.1492 8.25049L33.5693 12.4205C33.7493 14.1905 33.2093 15.8706 32.0543 17.1456C30.8993 18.4206 29.2793 19.1255 27.4943 19.1255ZM22.7392 4.12549L23.6693 13.4104C23.8643 15.2854 25.6193 16.8755 27.4943 16.8755C28.6343 16.8755 29.6543 16.4406 30.3893 15.6456C31.1093 14.8506 31.4393 13.7856 31.3343 12.6456L30.9143 8.52057C30.4493 5.13057 29.3543 4.12549 26.0693 4.12549H22.7392Z" fill="#6B6A99"/>
<path d="M8.50542 19.1255C6.72042 19.1255 5.10046 18.4206 3.94546 17.1456C2.79046 15.8706 2.25044 14.1905 2.43044 12.4205L2.85049 8.29553C3.48049 3.72053 5.53546 1.87549 9.94546 1.87549H14.5204C14.8354 1.87549 15.1354 2.01049 15.3604 2.25049C15.5704 2.49049 15.6754 2.80542 15.6454 3.12042L14.5954 13.6354C14.2654 16.6654 11.5354 19.1255 8.50542 19.1255ZM9.93044 4.12549C6.64544 4.12549 5.55046 5.11542 5.07046 8.55042L4.66543 12.6306C4.54543 13.7706 4.89043 14.8356 5.61043 15.6306C6.33043 16.4256 7.36542 16.8605 8.50542 16.8605C10.3954 16.8605 12.1504 15.2706 12.3304 13.3956L13.2605 4.11047H9.93044V4.12549Z" fill="#6B6A99"/>
<path d="M7.5 35.6252C5.4 35.6252 3.43502 34.7102 2.08502 33.1052C2.07002 33.0902 2.01 33.0302 1.965 32.9552C1.74 32.6852 1.54499 32.4153 1.39499 32.1303C0.734989 31.0653 0.375 29.8052 0.375 28.4852C0.375 26.2952 1.35004 24.2703 3.04504 22.9203C3.34504 22.6803 3.675 22.4552 4.035 22.2602C5.07 21.6752 6.285 21.3452 7.5 21.3452C9.24 21.3452 10.845 21.9453 12.135 23.0703C12.3 23.1903 12.525 23.4152 12.72 23.6252C13.935 24.9602 14.61 26.6702 14.61 28.4552C14.61 29.7602 14.25 31.0353 13.575 32.1303C13.245 32.7003 12.84 33.1953 12.39 33.5853C12.3 33.6753 12.21 33.7653 12.105 33.8403C10.92 34.9953 9.255 35.6252 7.5 35.6252ZM3.71997 31.5603C3.76497 31.6053 3.83996 31.6802 3.89996 31.7852C4.72496 32.7602 6.075 33.3903 7.5 33.3903C8.685 33.3903 9.82501 32.9552 10.695 32.1752C10.74 32.1152 10.8 32.0552 10.875 32.0102C11.175 31.7552 11.43 31.4252 11.67 31.0352C12.135 30.2702 12.39 29.4153 12.39 28.5153C12.39 27.3003 11.925 26.1153 11.085 25.2003C10.98 25.0803 10.875 24.9602 10.74 24.8702C9.11996 23.4752 6.89997 23.2653 5.12997 24.2703C4.88997 24.4053 4.67999 24.5402 4.48499 24.7052C3.31499 25.6352 2.64001 27.0153 2.64001 28.5153C2.64001 29.4003 2.87997 30.2703 3.34497 31.0203C3.46497 31.2303 3.58497 31.3953 3.71997 31.5453C3.70497 31.5453 3.71997 31.5453 3.71997 31.5603Z" fill="#6B6A99"/>
<path d="M9.74963 29.5952H5.26465C4.64965 29.5952 4.13965 29.0852 4.13965 28.4702C4.13965 27.8552 4.64965 27.3452 5.26465 27.3452H9.74963C10.3646 27.3452 10.8746 27.8552 10.8746 28.4702C10.8746 29.0852 10.3646 29.5952 9.74963 29.5952Z" fill="#6B6A99"/>
<path d="M7.5 31.8907C6.885 31.8907 6.375 31.3807 6.375 30.7657V26.2808C6.375 25.6658 6.885 25.1558 7.5 25.1558C8.115 25.1558 8.625 25.6658 8.625 26.2808V30.7657C8.625 31.3957 8.115 31.8907 7.5 31.8907Z" fill="#6B6A99"/>
</svg>
