<svg width="40" height="40" viewBox="0 0 40 40" fill="none" xmlns="http://www.w3.org/2000/svg">
<rect width="40" height="40" rx="4" fill="white"/>
<g clip-path="url(#clip0_215_34)">
<rect width="27" height="27" transform="translate(7 7)" fill="white"/>
<path d="M33.8171 10.8178L33.8989 11.1448C33.9261 11.3901 33.967 11.7035 34.0215 12.0851C34.076 12.4666 34.1169 12.9163 34.1442 13.4341C34.1987 13.9519 34.2259 14.4697 34.2259 14.9875C34.2259 18.0126 34.0488 20.5744 33.6945 22.6729C33.3674 24.7714 32.8087 26.4747 32.0184 27.7829C31.2553 29.0638 30.2333 30.004 28.9524 30.6036C27.6715 31.1759 26.0908 31.4621 24.2104 31.4621C21.5668 31.4621 19.7545 30.3719 18.7734 28.1917C18.2828 29.3091 17.6015 30.1403 16.7294 30.6853C15.8845 31.2032 14.6309 31.4621 12.9684 31.4621C10.8427 31.4621 9.31652 30.8489 8.38991 29.6225C7.4633 28.3961 7 26.6928 7 24.5125V10.8178H11.6603V24.1446C11.6603 25.2892 11.8647 26.2431 12.2735 27.0062C12.6823 27.742 13.3772 28.1099 14.3584 28.1099C15.612 28.1099 16.5795 27.4967 17.2608 26.2703C17.9421 25.0439 18.2828 23.0136 18.2828 20.1792V10.8178H22.9022C22.875 12.8618 22.8613 14.7559 22.8613 16.5001C22.8613 17.2632 22.8477 18.0262 22.8205 18.7893C22.8205 19.5524 22.8205 20.2746 22.8205 20.956C22.8205 21.6373 22.8205 22.2641 22.8205 22.8364C22.8205 23.3815 22.8205 23.8175 22.8205 24.1446C22.8205 25.2892 23.0385 26.2431 23.4745 27.0062C23.9106 27.742 24.6192 28.1099 25.6003 28.1099C26.5541 28.1099 27.29 27.742 27.8078 27.0062C28.3529 26.2703 28.748 25.3165 28.9933 24.1446C29.2386 22.9454 29.3885 21.5964 29.443 20.0975C29.4975 18.5713 29.5247 17.0315 29.5247 15.4781C29.5247 14.8513 29.4975 14.2653 29.443 13.7202C29.4157 13.1479 29.3612 12.6437 29.2795 12.2077C29.225 11.7716 29.1841 11.431 29.1568 11.1857L29.0751 10.8178H33.8171Z" fill="#3604C4"/>
<path d="M40.9909 31.3394C39.5465 31.3394 38.4427 30.917 37.6796 30.0721C36.9165 29.2 36.535 28.0827 36.535 26.72V10.8178H41.1953V26.3112C41.1953 26.938 41.2907 27.3605 41.4814 27.5785C41.6722 27.7965 41.9584 27.9055 42.3399 27.9055C42.4489 27.9055 42.5579 27.9055 42.6669 27.9055C42.8032 27.9055 42.9258 27.8919 43.0349 27.8646C43.1439 27.8646 43.2665 27.851 43.4028 27.8238L43.8933 30.7671C43.7026 30.8761 43.4573 30.9715 43.1575 31.0533C42.9122 31.135 42.5988 31.2032 42.2173 31.2577C41.863 31.3122 41.4542 31.3394 40.9909 31.3394ZM38.9469 1.74248C39.819 1.74248 40.4867 2.00139 40.95 2.5192C41.4133 3.03701 41.6449 3.70471 41.6449 4.52231C41.6449 5.3399 41.3997 6.02123 40.9091 6.56629C40.4458 7.11136 39.7509 7.38389 38.8242 7.38389C37.9521 7.38389 37.2708 7.12498 36.7803 6.60717C36.317 6.06211 36.0853 5.40803 36.0853 4.64495C36.0853 3.8001 36.317 3.10514 36.7803 2.56008C37.2708 2.01502 37.993 1.74248 38.9469 1.74248Z" fill="#3604C4"/>
<path d="M57.7867 31.1759V17.9717C57.7867 16.8271 57.5823 15.9141 57.1735 15.2328C56.7647 14.5242 56.0697 14.1699 55.0886 14.1699C54.4618 14.1699 53.8486 14.3334 53.249 14.6605C52.6767 14.9603 52.1589 15.4099 51.6956 16.0095C51.2323 16.6091 50.8508 17.3449 50.551 18.217C50.2784 19.0619 50.1422 20.0157 50.1422 21.0786V31.1759H45.4819V20.8742C45.4819 19.239 45.3729 17.8764 45.1549 16.7862C44.9368 15.6689 44.7052 14.7695 44.4599 14.0882C44.1601 13.2978 43.8331 12.6574 43.4788 12.1668L47.158 10.6951C47.4305 10.9949 47.703 11.3629 47.9756 11.7989C48.1936 12.1804 48.4116 12.6574 48.6296 13.2297C48.8477 13.7748 49.0248 14.4016 49.1611 15.1102C49.8697 13.475 50.8916 12.3031 52.2271 11.5945C53.5625 10.8587 54.966 10.4907 56.4377 10.4907C58.5362 10.4907 60.0487 11.1312 60.9753 12.4121C61.9292 13.6657 62.4061 15.3691 62.4061 17.5221V31.1759H57.7867Z" fill="#3604C4"/>
<path d="M69.3543 1.53809V13.1888C69.5723 12.9163 69.8449 12.6301 70.1719 12.3303C70.5262 12.0033 70.9623 11.7035 71.4801 11.431C71.9979 11.1585 72.5974 10.9268 73.2788 10.736C73.9601 10.5453 74.7504 10.4499 75.6498 10.4499C76.4946 10.4499 77.285 10.5725 78.0208 10.8178C78.7567 11.0631 79.3835 11.4174 79.9013 11.8807C80.4464 12.344 80.8688 12.9163 81.1686 13.5976C81.4956 14.2517 81.6591 15.0011 81.6591 15.846C81.6591 17.0724 81.4002 18.0808 80.8824 18.8711C80.3918 19.6614 79.8332 20.2883 79.2063 20.7516C78.4978 21.2966 77.6802 21.7327 76.7536 22.0597L82.4767 31.1759H77.2032L71.3165 20.9968L71.2757 20.588C71.4937 20.5335 71.9025 20.4109 72.5021 20.2201C73.1289 20.0294 73.7693 19.7568 74.4234 19.4025C75.0775 19.0482 75.6498 18.6122 76.1404 18.0944C76.6582 17.5493 76.9171 16.9089 76.9171 16.173C76.9171 15.3827 76.6854 14.7831 76.2221 14.3743C75.7588 13.9655 75.1456 13.7611 74.3825 13.7611C73.3469 13.7611 72.5021 13.9655 71.848 14.3743C71.1939 14.7831 70.6761 15.2464 70.2946 15.7642C69.9403 16.282 69.695 16.7726 69.5587 17.2359C69.4225 17.6992 69.3543 17.9717 69.3543 18.0535V31.1759H64.694V2.35568L69.3543 1.53809Z" fill="#3604C4"/>
</g>
<defs>
<clipPath id="clip0_215_34">
<rect width="27" height="27" fill="white" transform="translate(7 7)"/>
</clipPath>
</defs>
</svg>
